<svg xmlns="http://www.w3.org/2000/svg" viewBox="416 362 275 334" fill="currentColor">
  <path d="M625.019 686.399L685.518 650.902C686.981 650.049 687.488 648.121 686.652 646.63L635.366 555.765C634.958 555.034 634.292 554.527 633.506 554.294C633.237 554.223 632.979 554.182 632.7 554.182C632.173 554.182 631.655 554.324 631.178 554.598L570.669 590.096C569.207 590.948 568.699 592.876 569.535 594.368L620.831 685.232C621.667 686.724 623.557 687.242 625.019 686.389H625.029L625.019 686.399Z"/>
  <path d="M563.556 481.401L603.809 474.227C604.833 474.044 605.53 473.049 605.351 472.004L587.214 366.354C587.135 365.837 586.856 365.411 586.448 365.116C586.13 364.893 585.752 364.761 585.374 364.761C585.264 364.761 585.155 364.761 585.035 364.792L517.971 376.756C514.717 377.345 512.538 380.501 513.106 383.819C513.285 384.874 513.732 385.869 514.409 386.681L575.673 461.329C578.011 464.18 577.643 468.432 574.848 470.817L563.228 480.731C563.228 480.731 563.009 480.934 563.128 481.198C563.257 481.472 563.466 481.442 563.546 481.422L563.556 481.401Z"/>
  <path d="M687.747 409.97C687.617 409.473 687.299 409.057 686.871 408.803L628.402 374.29C625.298 372.453 621.319 373.539 619.518 376.715C618.941 377.73 618.652 378.867 618.642 380.034L618.513 476.236C618.513 478.103 617.797 479.849 616.503 481.168C615.22 482.477 613.499 483.208 611.668 483.208H597.7C597.312 483.197 597.153 483.451 597.083 483.664C597.024 483.877 597.024 484.172 597.372 484.395L632.232 504.975C633.138 505.503 634.282 505.188 634.799 504.275L687.528 411.462C687.776 411.015 687.846 410.498 687.727 410.011H687.737L687.747 409.97Z"/>
  <path d="M420.98 490.473C420.472 490.473 420.005 490.676 419.657 491.032C419.308 491.387 419.099 491.874 419.099 492.381L419 561.884C419 563.498 419.617 565 420.721 566.126C421.835 567.263 423.318 567.892 424.88 567.892C425.875 567.861 426.929 567.618 427.825 567.09L511.056 518.258C512.638 517.335 514.479 517.091 516.249 517.579C518.01 518.066 519.493 519.212 520.398 520.836L526.835 532.242C527.034 532.597 527.322 532.597 527.551 532.537C527.76 532.476 528.009 532.323 528.009 531.928L528.069 492.554C528.069 492.046 527.87 491.559 527.521 491.184C527.173 490.818 526.696 490.616 526.198 490.616L420.99 490.473H420.98Z"/>
  <path d="M523.283 559.824C524.945 559.043 526.805 558.952 528.526 559.601L540.017 563.883C540.395 564.026 540.614 563.823 540.743 563.66C540.873 563.478 540.962 563.193 540.713 562.879L516.2 533.003C515.822 532.547 515.294 532.323 514.747 532.323C514.319 532.323 513.892 532.466 513.543 532.77L433.774 600.802C433.147 601.339 432.749 602.101 432.68 602.923C432.61 603.744 432.859 604.577 433.376 605.216L476.076 657.234C478.325 659.964 482.334 660.339 485.02 658.046C485.886 657.305 486.542 656.351 486.92 655.286L519.731 563.762C520.358 562.006 521.622 560.616 523.283 559.834V559.824Z"/>
  <path d="M530.426 573.321L512.021 678.92C511.942 679.428 512.051 679.935 512.33 680.361C512.618 680.787 513.056 681.061 513.543 681.163L579.643 693.137C583.404 693.817 587.005 691.26 587.672 687.414C587.881 686.186 587.781 684.938 587.363 683.771L555.07 592.917C553.786 589.304 555.627 585.296 559.178 583.986L570.411 579.846C570.789 579.704 570.848 579.42 570.828 579.187C570.818 578.963 570.699 578.689 570.311 578.618L532.625 571.799C532.516 571.789 532.406 571.768 532.287 571.768C531.909 571.768 531.531 571.88 531.212 572.113C530.795 572.408 530.526 572.854 530.426 573.351V573.321Z"/>
  <path d="M562.441 466.616L481.936 397.569C481.588 397.275 481.17 397.113 480.722 397.113H480.553C480.045 397.153 479.588 397.397 479.269 397.792L435.296 451.089C433.256 453.555 433.565 457.259 435.992 459.329C436.758 459.979 437.693 460.435 438.688 460.608L535.5 478.154C536.664 478.367 537.669 479.026 538.335 480.001C539.002 480.985 539.271 482.182 539.062 483.349L536.256 499.454C536.186 499.85 536.405 500.053 536.604 500.154C536.803 500.256 537.092 500.297 537.36 499.982L562.67 469.305C563.337 468.493 563.247 467.285 562.451 466.595H562.441V466.616Z"/>
</svg>
