<svg width="1920" height="1078" viewBox="0 0 1920 1078" fill="none" xmlns="http://www.w3.org/2000/svg">
<g clip-path="url(#clip0_2282_22456)">
<rect width="1920" height="1078" fill="white"/>
<g opacity="0.35" filter="url(#filter0_f_2282_22456)">
<ellipse cx="-2.5" cy="81.5" rx="675.5" ry="338.5" fill="#0AE5F6"/>
</g>
<g opacity="0.35" filter="url(#filter1_f_2282_22456)">
<circle cx="2150" cy="282" r="200" fill="#0AE5F6"/>
</g>
<g opacity="0.25" filter="url(#filter2_f_2282_22456)">
<ellipse cx="619.987" cy="1238.59" rx="349.543" ry="815.294" transform="rotate(-60.0825 619.987 1238.59)" fill="#9747FF"/>
</g>
<g opacity="0.5" filter="url(#filter3_f_2282_22456)" style="mix-blend-mode:plus-darker">
<ellipse cx="1633.96" cy="1153.24" rx="962.92" ry="359.923" transform="rotate(-16.8958 1633.96 1153.24)" fill="#69E4B5"/>
</g>
<path d="M757.12 492.615C750.364 488.535 745.151 482.832 741.48 475.475C737.819 468.118 735.979 459.715 735.979 450.267C735.979 440.82 737.849 432.417 741.58 425.06C745.31 417.703 750.563 411.989 757.319 407.92C764.064 403.851 771.824 401.811 780.569 401.811C791.503 401.811 800.516 404.734 807.58 410.569C814.663 416.414 819.3 424.268 821.478 434.112L812.206 436.284C810.405 428.267 806.834 421.904 801.501 417.175C796.159 412.446 789.175 410.082 780.559 410.082C769.874 410.082 761.408 413.694 755.18 420.92C748.932 428.155 745.818 437.796 745.818 449.872V450.653C745.818 462.729 748.902 472.38 755.08 479.605C761.258 486.84 769.685 490.443 780.37 490.443C789.244 490.443 796.358 488.079 801.69 483.36C807.033 478.631 810.604 472.126 812.405 463.855L821.866 466.22C819.419 476.327 814.654 484.273 807.57 490.057C800.496 495.832 791.483 498.724 780.559 498.724C771.685 498.724 763.865 496.684 757.11 492.625L757.12 492.615Z" fill="#080C64"/>
<path d="M838.481 364H847.743V426.816C853.533 410.143 864.278 401.801 879.977 401.801C889.757 401.801 897.447 404.927 903.049 411.168C908.65 417.408 911.435 426.176 911.435 437.461V496.745H901.795V438.262C901.795 429.19 899.736 422.31 895.617 417.581C891.488 412.852 885.767 410.488 878.435 410.488C868.148 410.488 860.448 414.699 855.364 423.101C850.28 431.504 847.743 443.651 847.743 459.532V496.755H838.481V364Z" fill="#080C64"/>
<path d="M949.271 492.615C942.575 488.535 937.392 482.863 933.731 475.576C930.059 468.29 928.229 459.857 928.229 450.257C928.229 440.657 930.089 432.427 933.82 425.151C937.551 417.865 942.804 412.142 949.559 408.012C956.314 403.871 964.134 401.801 973.008 401.801C981.883 401.801 989.503 403.871 996.259 408.012C1003.01 412.142 1008.23 417.855 1011.9 425.151C1015.56 432.427 1017.4 440.81 1017.4 450.257C1017.4 459.705 1015.53 468.087 1011.8 475.373C1008.07 482.66 1002.81 488.373 996.07 492.513C989.314 496.643 981.495 498.714 972.62 498.714C963.746 498.714 955.956 496.674 949.261 492.615H949.271ZM998.199 479.514C1004.44 472.349 1007.56 462.739 1007.56 450.653V449.872C1007.56 437.796 1004.48 428.155 998.298 420.92C992.12 413.694 983.693 410.082 973.008 410.082C962.323 410.082 953.638 413.694 947.331 420.92C941.023 428.155 937.869 437.796 937.869 449.872V450.653C937.869 462.729 940.953 472.359 947.132 479.514C953.31 486.668 961.806 490.25 972.62 490.25C983.435 490.25 991.961 486.678 998.189 479.514H998.199Z" fill="#080C64"/>
<path d="M1049.82 492.615C1043.14 488.535 1037.95 482.863 1034.28 475.576C1030.62 468.29 1028.78 459.857 1028.78 450.257C1028.78 440.657 1030.65 432.427 1034.38 425.151C1038.11 417.865 1043.37 412.142 1050.12 408.012C1056.87 403.871 1064.69 401.801 1073.56 401.801C1082.44 401.801 1090.07 403.871 1096.82 408.012C1103.57 412.142 1108.79 417.855 1112.45 425.151C1116.12 432.427 1117.95 440.81 1117.95 450.257C1117.95 459.705 1116.08 468.087 1112.35 475.373C1108.62 482.66 1103.37 488.373 1096.61 492.513C1089.86 496.643 1082.04 498.714 1073.16 498.714C1064.29 498.714 1056.51 496.674 1049.8 492.615H1049.82ZM1098.76 479.514C1105 472.349 1108.12 462.739 1108.12 450.653V449.872C1108.12 437.796 1105.03 428.155 1098.85 420.92C1092.67 413.694 1084.25 410.082 1073.56 410.082C1062.88 410.082 1054.2 413.694 1047.89 420.92C1041.6 428.155 1038.44 437.796 1038.44 449.872V450.653C1038.44 462.729 1041.53 472.359 1047.7 479.514C1053.88 486.668 1062.37 490.25 1073.18 490.25C1084 490.25 1092.52 486.678 1098.76 479.514Z" fill="#080C64"/>
<path d="M1143.44 494.38C1136.5 491.366 1130.96 486.962 1126.84 481.178L1134.17 476.256C1138.16 481.371 1142.98 485.126 1148.65 487.49C1154.32 489.854 1160.17 491.042 1166.22 491.042C1173.3 491.042 1178.9 489.367 1183.02 486.008C1187.15 482.66 1189.2 478.164 1189.2 472.512C1189.2 468.057 1187.65 464.606 1184.57 462.171C1181.49 459.746 1176.78 457.604 1170.48 455.768L1161.22 453.21C1154.14 451.505 1148.49 449.77 1144.24 447.984C1139.99 446.208 1136.65 443.692 1134.19 440.404C1131.75 437.126 1130.53 432.793 1130.53 427.404C1130.53 422.543 1131.85 418.18 1134.49 414.313C1137.12 410.437 1140.75 407.392 1145.4 405.15C1150.03 402.907 1155.24 401.801 1161.04 401.801C1168.11 401.801 1174.61 403.212 1180.53 406.043C1186.45 408.864 1191.79 412.842 1196.55 417.956L1189.6 423.467C1185.87 419.012 1181.5 415.582 1176.48 413.228C1171.47 410.863 1166.24 409.666 1160.84 409.666C1154.4 409.666 1149.26 411.249 1145.4 414.405C1141.54 417.551 1139.61 421.762 1139.61 427.008C1139.61 430.946 1140.77 434.031 1143.09 436.263C1145.41 438.496 1148.94 440.333 1153.71 441.774C1156.03 442.433 1160.02 443.478 1165.68 444.919C1166.96 445.183 1167.92 445.447 1168.56 445.701C1174.61 447.142 1179.75 448.847 1184.01 450.815C1188.26 452.784 1191.7 455.443 1194.33 458.792C1196.98 462.14 1198.29 466.372 1198.29 471.497C1198.29 476.885 1196.97 481.635 1194.33 485.775C1191.68 489.905 1187.93 493.132 1183.04 495.415C1178.14 497.709 1172.48 498.866 1166.05 498.866C1157.94 498.866 1150.42 497.354 1143.47 494.33V494.36L1143.44 494.38Z" fill="#080C64"/>
<path d="M1230.1 492.513C1223.41 488.373 1218.3 482.69 1214.75 475.475C1211.22 468.25 1209.45 459.918 1209.45 450.46C1209.45 441.002 1211.32 432.6 1215.05 425.253C1218.78 417.906 1224.01 412.162 1230.68 408.032C1237.38 403.891 1244.98 401.821 1253.45 401.821C1266.06 401.821 1276.04 406.083 1283.37 414.628C1290.7 423.162 1294.37 434.792 1294.37 449.486V453.038H1219.09C1219.35 464.201 1222.53 473.242 1228.65 480.123C1234.75 487.023 1243.1 490.463 1253.64 490.463C1262.79 490.463 1270.06 488.464 1275.45 484.456C1280.85 480.457 1284.77 475.17 1287.22 468.595L1295.33 471.548C1292.5 479.554 1287.64 486.1 1280.76 491.133C1273.88 496.197 1264.84 498.714 1253.64 498.714C1244.65 498.714 1236.79 496.643 1230.09 492.513V492.493L1230.1 492.513ZM1275.85 419.438C1270.32 413.197 1262.8 410.072 1253.27 410.072C1243.73 410.072 1235.68 413.299 1229.44 419.722C1223.19 426.156 1219.69 434.69 1218.92 445.325H1284.35C1284.23 434.284 1281.38 425.659 1275.85 419.428V419.438Z" fill="#080C64"/>
<path d="M739.272 563.224H763.009V578.202C765.327 572.692 768.67 568.48 773.048 565.588C777.415 562.696 782.897 561.255 789.463 561.255C794.995 561.255 800.009 562.808 804.516 565.893C809.023 568.978 812.375 573.869 814.554 580.567C816.743 574.518 820.354 569.8 825.368 566.38C830.383 562.97 836.69 561.265 844.281 561.265C853.155 561.265 860.169 564.594 865.323 571.21C870.466 577.837 873.043 587.132 873.043 599.076V656.199H849.305V600.467C849.305 594.297 848.022 589.669 845.445 586.574C842.868 583.489 839.147 581.937 834.253 581.937C828.98 581.937 824.951 583.773 822.185 587.447C819.409 591.131 818.046 596.377 818.046 603.207V656.189H794.109V599.462C794.109 593.688 792.856 589.324 790.349 586.371C787.832 583.428 784.2 581.947 779.435 581.947C774.669 581.947 770.71 583.784 767.556 587.457C764.402 591.141 762.82 596.387 762.82 603.217V656.199H739.272V563.234H739.252L739.272 563.224Z" fill="#080C64"/>
<path d="M881.917 672.73H893.498C896.84 672.598 899.407 672.07 901.218 671.157C903.019 670.234 904.67 668.59 906.153 666.235C907.625 663.871 909.326 660.258 911.256 655.397L876.704 563.224H901.795L923.026 628.414L942.903 563.224H966.84L931.9 664.855C929.323 671.949 926.468 677.591 923.314 681.802C920.17 686.003 916.181 689.078 911.346 691.047C906.531 693.016 900.432 694 893.11 694H881.917V672.73Z" fill="#080C64"/>
<path d="M1012.39 523.627H1036.32V656.179H1012.39V523.627Z" fill="#080C64"/>
<path d="M1059.01 651.074C1053.28 646.082 1050.42 639.587 1050.42 631.57C1050.42 624.872 1051.9 619.626 1054.87 615.82C1057.83 612.015 1061.75 609.123 1066.64 607.154C1071.52 605.185 1078.02 603.278 1086.14 601.431C1088.7 600.903 1091.28 600.385 1093.86 599.858C1100.67 598.549 1105.34 597.432 1107.85 596.509C1110.36 595.586 1111.81 594.216 1112.19 592.369V591.181C1112.19 588.157 1110.78 585.61 1107.94 583.499C1105.11 581.409 1100.73 580.354 1094.81 580.354C1088.89 580.354 1084.27 581.744 1080.92 584.494C1077.58 587.244 1075.91 590.796 1075.91 595.129V596.316H1052.35C1052.74 585.681 1056.76 577.208 1064.42 570.916C1072.08 564.614 1082.34 561.468 1095.21 561.468C1108.08 561.468 1117.53 564.411 1124.35 570.338C1131.17 576.244 1134.59 585.306 1134.59 597.514V656.199H1112V643.595C1109.04 648.456 1105.02 652.16 1099.93 654.728C1094.85 657.295 1088.9 658.563 1082.08 658.563C1072.44 658.563 1064.74 656.077 1059.01 651.084V651.074ZM1104.55 635.507C1109.25 631.712 1111.79 625.867 1112.18 617.972V609.904C1110.12 610.96 1107.84 611.873 1105.32 612.664C1102.81 613.446 1099.56 614.298 1095.57 615.222C1093.9 615.618 1092.28 616.003 1090.75 616.409C1085.35 617.982 1081.26 619.758 1078.5 621.727C1075.73 623.695 1074.36 626.587 1074.36 630.393C1074.36 633.539 1075.54 636.137 1077.93 638.176C1080.31 640.216 1083.5 641.231 1087.48 641.231C1094.16 641.231 1099.88 639.323 1104.56 635.507H1104.55Z" fill="#080C64"/>
<path d="M1326.04 563.224L1306.16 628.414L1284.92 563.224H1249.22L1233.96 623.107L1217.17 563.224H1194.98L1178.18 622.711L1162.74 563.224H1138.03L1166.98 656.189H1188.21L1205.59 592.176L1223.16 656.189H1244.19L1266.95 582.18L1291.14 646.711C1293.55 653.124 1292.93 660.36 1289.32 666.164C1289.3 666.185 1289.29 666.215 1289.27 666.235C1287.79 668.6 1286.15 670.244 1284.35 671.157C1282.54 672.07 1279.97 672.588 1276.63 672.73H1265.05V694H1276.25C1283.58 694 1289.66 693.016 1294.48 691.047C1299.3 689.078 1303.3 685.983 1306.45 681.802C1309.61 677.591 1312.47 671.959 1315.04 664.855L1349.98 563.224H1326.04Z" fill="#080C64"/>
<path d="M1368.1 652.059C1361.22 648.253 1355.87 642.733 1352.09 635.507C1348.29 628.282 1346.4 619.88 1346.4 610.31C1346.4 600.741 1348.37 592.257 1352.28 584.91C1356.2 577.553 1361.61 571.819 1368.49 567.679C1375.38 563.549 1383.2 561.478 1391.93 561.478C1405.7 561.478 1416.48 565.781 1424.26 574.376C1432.05 582.972 1435.94 594.703 1435.94 609.539V617.607H1369.74C1370.5 624.436 1372.92 629.693 1376.98 633.366C1381.02 637.04 1386.34 638.877 1392.9 638.877C1399.45 638.877 1404.09 637.567 1407.57 634.939C1411.04 632.311 1413.62 628.769 1415.29 624.304L1435.95 631.783C1432.46 639.79 1427.19 646.132 1420.13 650.79C1413.04 655.448 1403.92 657.782 1392.71 657.782C1383.19 657.782 1374.99 655.884 1368.1 652.069V652.059ZM1406.04 585.478C1402.56 582.069 1397.67 580.364 1391.36 580.364C1385.57 580.364 1380.71 582.17 1376.79 585.783C1372.87 589.385 1370.39 594.408 1369.36 600.842H1411.82C1411.43 594.013 1409.5 588.888 1406.03 585.468L1406.04 585.478Z" fill="#080C64"/>
<path d="M1449.27 563.224H1473V579.968C1474.29 574.326 1476.99 569.911 1481.11 566.765C1485.23 563.62 1491.21 562.037 1499.06 562.037H1501V585.478H1491.73C1484.52 585.478 1479.57 587.224 1476.87 590.704C1474.16 594.185 1472.82 600.122 1472.82 608.534V656.199H1449.27V563.224Z" fill="#080C64"/>
<path d="M625.019 686.399L685.518 650.902C686.981 650.049 687.488 648.121 686.652 646.63L635.366 555.765C634.958 555.034 634.292 554.527 633.506 554.294C633.237 554.223 632.979 554.182 632.7 554.182C632.173 554.182 631.655 554.324 631.178 554.598L570.669 590.096C569.207 590.948 568.699 592.876 569.535 594.368L620.831 685.232C621.667 686.724 623.557 687.242 625.019 686.389H625.029L625.019 686.399Z" fill="url(#paint0_linear_2282_22456)"/>
<path d="M563.556 481.401L603.809 474.227C604.833 474.044 605.53 473.049 605.351 472.004L587.214 366.354C587.135 365.837 586.856 365.411 586.448 365.116C586.13 364.893 585.752 364.761 585.374 364.761C585.264 364.761 585.155 364.761 585.035 364.792L517.971 376.756C514.717 377.345 512.538 380.501 513.106 383.819C513.285 384.874 513.732 385.869 514.409 386.681L575.673 461.329C578.011 464.18 577.643 468.432 574.848 470.817L563.228 480.731C563.228 480.731 563.009 480.934 563.128 481.198C563.257 481.472 563.466 481.442 563.546 481.422L563.556 481.401Z" fill="url(#paint1_linear_2282_22456)"/>
<path d="M687.747 409.97C687.617 409.473 687.299 409.057 686.871 408.803L628.402 374.29C625.298 372.453 621.319 373.539 619.518 376.715C618.941 377.73 618.652 378.867 618.642 380.034L618.513 476.236C618.513 478.103 617.797 479.849 616.503 481.168C615.22 482.477 613.499 483.208 611.668 483.208H597.7C597.312 483.197 597.153 483.451 597.083 483.664C597.024 483.877 597.024 484.172 597.372 484.395L632.232 504.975C633.138 505.503 634.282 505.188 634.799 504.275L687.528 411.462C687.776 411.015 687.846 410.498 687.727 410.011H687.737L687.747 409.97Z" fill="url(#paint2_linear_2282_22456)"/>
<path d="M420.98 490.473C420.472 490.473 420.005 490.676 419.657 491.032C419.308 491.387 419.099 491.874 419.099 492.381L419 561.884C419 563.498 419.617 565 420.721 566.126C421.835 567.263 423.318 567.892 424.88 567.892C425.875 567.861 426.929 567.618 427.825 567.09L511.056 518.258C512.638 517.335 514.479 517.091 516.249 517.579C518.01 518.066 519.493 519.212 520.398 520.836L526.835 532.242C527.034 532.597 527.322 532.597 527.551 532.537C527.76 532.476 528.009 532.323 528.009 531.928L528.069 492.554C528.069 492.046 527.87 491.559 527.521 491.184C527.173 490.818 526.696 490.616 526.198 490.616L420.99 490.473H420.98Z" fill="url(#paint3_linear_2282_22456)"/>
<path d="M523.283 559.824C524.945 559.043 526.805 558.952 528.526 559.601L540.017 563.883C540.395 564.026 540.614 563.823 540.743 563.66C540.873 563.478 540.962 563.193 540.713 562.879L516.2 533.003C515.822 532.547 515.294 532.323 514.747 532.323C514.319 532.323 513.892 532.466 513.543 532.77L433.774 600.802C433.147 601.339 432.749 602.101 432.68 602.923C432.61 603.744 432.859 604.577 433.376 605.216L476.076 657.234C478.325 659.964 482.334 660.339 485.02 658.046C485.886 657.305 486.542 656.351 486.92 655.286L519.731 563.762C520.358 562.006 521.622 560.616 523.283 559.834V559.824Z" fill="url(#paint4_linear_2282_22456)"/>
<path d="M530.426 573.321L512.021 678.92C511.942 679.428 512.051 679.935 512.33 680.361C512.618 680.787 513.056 681.061 513.543 681.163L579.643 693.137C583.404 693.817 587.005 691.26 587.672 687.414C587.881 686.186 587.781 684.938 587.363 683.771L555.07 592.917C553.786 589.304 555.627 585.296 559.178 583.986L570.411 579.846C570.789 579.704 570.848 579.42 570.828 579.187C570.818 578.963 570.699 578.689 570.311 578.618L532.625 571.799C532.516 571.789 532.406 571.768 532.287 571.768C531.909 571.768 531.531 571.88 531.212 572.113C530.795 572.408 530.526 572.854 530.426 573.351V573.321Z" fill="url(#paint5_linear_2282_22456)"/>
<path d="M562.441 466.616L481.936 397.569C481.588 397.275 481.17 397.113 480.722 397.113H480.553C480.045 397.153 479.588 397.397 479.269 397.792L435.296 451.089C433.256 453.555 433.565 457.259 435.992 459.329C436.758 459.979 437.693 460.435 438.688 460.608L535.5 478.154C536.664 478.367 537.669 479.026 538.335 480.001C539.002 480.985 539.271 482.182 539.062 483.349L536.256 499.454C536.186 499.85 536.405 500.053 536.604 500.154C536.803 500.256 537.092 500.297 537.36 499.982L562.67 469.305C563.337 468.493 563.247 467.285 562.451 466.595H562.441V466.616Z" fill="#080C64"/>
</g>
<defs>
<filter id="filter0_f_2282_22456" x="-928" y="-507" width="1851" height="1177" filterUnits="userSpaceOnUse" color-interpolation-filters="sRGB">
<feFlood flood-opacity="0" result="BackgroundImageFix"/>
<feBlend mode="normal" in="SourceGraphic" in2="BackgroundImageFix" result="shape"/>
<feGaussianBlur stdDeviation="125" result="effect1_foregroundBlur_2282_22456"/>
</filter>
<filter id="filter1_f_2282_22456" x="1700" y="-168" width="900" height="900" filterUnits="userSpaceOnUse" color-interpolation-filters="sRGB">
<feFlood flood-opacity="0" result="BackgroundImageFix"/>
<feBlend mode="normal" in="SourceGraphic" in2="BackgroundImageFix" result="shape"/>
<feGaussianBlur stdDeviation="125" result="effect1_foregroundBlur_2282_22456"/>
</filter>
<filter id="filter2_f_2282_22456" x="-358.022" y="481.478" width="1956.02" height="1514.23" filterUnits="userSpaceOnUse" color-interpolation-filters="sRGB">
<feFlood flood-opacity="0" result="BackgroundImageFix"/>
<feBlend mode="normal" in="SourceGraphic" in2="BackgroundImageFix" result="shape"/>
<feGaussianBlur stdDeviation="125" result="effect1_foregroundBlur_2282_22456"/>
</filter>
<filter id="filter3_f_2282_22456" x="456.602" y="459.47" width="2354.72" height="1387.54" filterUnits="userSpaceOnUse" color-interpolation-filters="sRGB">
<feFlood flood-opacity="0" result="BackgroundImageFix"/>
<feBlend mode="normal" in="SourceGraphic" in2="BackgroundImageFix" result="shape"/>
<feGaussianBlur stdDeviation="125" result="effect1_foregroundBlur_2282_22456"/>
</filter>
<linearGradient id="paint0_linear_2282_22456" x1="617.08" y1="723.581" x2="357.393" y2="413.191" gradientUnits="userSpaceOnUse">
<stop offset="0.02" stop-color="#E3A4F8"/>
<stop offset="0.4" stop-color="#4EA4F8"/>
<stop offset="0.7" stop-color="#69E4B5"/>
</linearGradient>
<linearGradient id="paint1_linear_2282_22456" x1="617.08" y1="723.581" x2="357.393" y2="413.191" gradientUnits="userSpaceOnUse">
<stop offset="0.02" stop-color="#E3A4F8"/>
<stop offset="0.4" stop-color="#4EA4F8"/>
<stop offset="0.7" stop-color="#69E4B5"/>
</linearGradient>
<linearGradient id="paint2_linear_2282_22456" x1="617.08" y1="723.581" x2="357.393" y2="413.191" gradientUnits="userSpaceOnUse">
<stop offset="0.02" stop-color="#E3A4F8"/>
<stop offset="0.4" stop-color="#4EA4F8"/>
<stop offset="0.7" stop-color="#69E4B5"/>
</linearGradient>
<linearGradient id="paint3_linear_2282_22456" x1="617.08" y1="723.581" x2="357.393" y2="413.191" gradientUnits="userSpaceOnUse">
<stop offset="0.02" stop-color="#E3A4F8"/>
<stop offset="0.4" stop-color="#4EA4F8"/>
<stop offset="0.7" stop-color="#69E4B5"/>
</linearGradient>
<linearGradient id="paint4_linear_2282_22456" x1="617.08" y1="723.581" x2="357.393" y2="413.191" gradientUnits="userSpaceOnUse">
<stop offset="0.02" stop-color="#E3A4F8"/>
<stop offset="0.4" stop-color="#4EA4F8"/>
<stop offset="0.7" stop-color="#69E4B5"/>
</linearGradient>
<linearGradient id="paint5_linear_2282_22456" x1="617.08" y1="723.581" x2="357.393" y2="413.191" gradientUnits="userSpaceOnUse">
<stop offset="0.02" stop-color="#E3A4F8"/>
<stop offset="0.4" stop-color="#4EA4F8"/>
<stop offset="0.7" stop-color="#69E4B5"/>
</linearGradient>
<clipPath id="clip0_2282_22456">
<rect width="1920" height="1078" fill="white"/>
</clipPath>
</defs>
</svg>
